# xmcd
#
# Track frame offsets:
#	150
#	16142
#	33194
#	48667
#	63744
#	80853
#	97394
#	110436
#	124881
#	139400
#	153220
#	169167
#	184186
#	200641
#	213226
#	227823
#	244211
#	261116
#	273074
#	289258
#	305646
#	323296
#	336777
#
# Disc length: 4797 seconds
#
# Revision: 1
# Processed by: cddbd v1.5.2PL0 Copyright (c) Steve Scherf et al.
# Submitted via: audiograbber 1.83.01
#
DISCID=5a12bb17
DTITLE=BRUNO E MARRONE - DE VOLTA AOS BARES
DYEAR=1900
DGENRE=
TTITLE0=NÃO TENTE DE IMPEDIR
TTITLE1=DUAS VEZES VOCÊ
TTITLE2=SOU EU
TTITLE3=DESLIGA
TTITLE4=A DOIS GRAUS
TTITLE5=FLASHBACK DE NÓS DOIS
TTITLE6=ALINE
TTITLE7=LIGUEI PRA DIZER QUE TE AMO
TTITLE8=AMOR NÃO VAI FALTAR
TTITLE9=AMIGA POR FAVOR
TTITLE10=CHAMEGO BOM
TTITLE11=QUEM TÁ BEBO, QUEM TÁ BEBO
TTITLE12=PRECISO AMAR DE NOVO
TTITLE13=COMO EU TE AMO
TTITLE14=FILHO PRÓDIGO
TTITLE15=PODE IR EMBORA
TTITLE16=AS PAREDES AZUIS
TTITLE17=ONDE VOCÊ ESTÁ
TTITLE18=CAVALGADA
TTITLE19=QUANDO VOCÊ QUISER
TTITLE20=TE AMO E NÃO TE QUERO
TTITLE21=FIEL ATÉ DEBAIXO D'AGUA
TTITLE22=FAVO DE MEL
EXTD=
EXTT0=
EXTT1=
EXTT2=
EXTT3=
EXTT4=
EXTT5=
EXTT6=
EXTT7=
EXTT8=
EXTT9=
EXTT10=
EXTT11=
EXTT12=
EXTT13=
EXTT14=
EXTT15=
EXTT16=
EXTT17=
EXTT18=
EXTT19=
EXTT20=
EXTT21=
EXTT22=
PLAYORDER=
